<?xml version="1.0" encoding="utf-8"?>
<svg version="1.1" id="_x32_" width="16px" height="16px" viewBox="0 0 512 512" xmlns="http://www.w3.org/2000/svg">
  <defs/>
  <style type="text/css">

	.st0{fill:#3b3b3b;}

</style>
  <g transform="matrix(0.733171, -0.341883, 0.311819, 0.668699, 47.953037, -32.322872)" style="transform-origin: 256px 256px;">
    <path class="st0" d="M46.162,507.995c2.594,2.594,6.141,4.047,9.813,4s7.172-1.563,9.719-4.219l257.922-264.093l-45.969-45.969&#10;&#9;&#9;L12.99,455.073c-2.656,2.531-4.188,6.047-4.219,9.719c-0.047,3.672,1.391,7.219,4,9.813L46.162,507.995z"/>
    <path class="st0" d="M493.412,332.074c13.469-34.469,20.063-127.641-27.859-175.563c-25.438-25.438-75.844-75.828-75.844-75.828&#10;&#9;&#9;c-13.234-13.25-26.359-0.953-36.141-10.734s0-25.422-8.813-34.219L312.475,3.449c-4.594-4.594-12.047-4.594-16.625,0&#10;&#9;&#9;l-44.984,44.969c-4.594,4.594-4.609,12.047,0,16.641l32.281,32.281c8.797,8.813,24.438-0.984,34.219,8.797&#10;&#9;&#9;c13.219,13.203,10.969,27.609,2.656,35.906l-16.625,16.641l-4.734,18l45.984,45.969l17.438-5.297&#10;&#9;&#9;c14.672-14.672,31.656-16.75,40.844-7.563c57.719,59.203,58.953,103.953,67.75,125.953&#10;&#9;&#9;C476.287,349.777,490.24,345.511,493.412,332.074z M402.834,209.699C402.771,209.621,402.74,209.589,402.834,209.699&#10;&#9;&#9;L402.834,209.699z"/>
  </g>
  <g id="XMLID_476_" transform="matrix(0.635757, 0.635755, 0.635743, -0.635745, -59.35873, 68.822792)" style="transform-origin: 222.446px 222.446px;">
    <path id="XMLID_503_" d="M440.498,173.103c5.858-5.857,5.858-15.355,0-21.213l-22.511-22.511c-5.091-5.091-13.084-5.846-19.038-1.8&#10;&#9;&#9;l-47.332,32.17l31.975-47.652c3.993-5.951,3.219-13.897-1.85-18.964l-48.83-48.83c-4.508-4.508-11.372-5.675-17.114-2.908&#10;&#9;&#9;l-8.443,4.065l4.043-8.97c2.563-5.685,1.341-12.361-3.068-16.771L293.002,4.393c-5.857-5.857-15.355-5.857-21.213,0&#10;&#9;&#9;l-119.06,119.059l168.71,168.71L440.498,173.103z"/>
    <path id="XMLID_1199_" d="M130.56,145.622l-34.466,34.466c-2.813,2.813-4.394,6.628-4.394,10.606s1.58,7.794,4.394,10.606&#10;&#9;&#9;l32.694,32.694c6.299,6.299,9.354,14.992,8.382,23.849c-0.971,8.851-5.843,16.677-13.366,21.473&#10;&#9;&#9;C27.736,340.554,18.781,349.51,15.839,352.453c-21.119,21.118-21.119,55.48,0,76.6c21.14,21.14,55.504,21.098,76.6,0&#10;&#9;&#9;c2.944-2.943,11.902-11.902,73.136-107.965c4.784-7.505,12.607-12.366,21.462-13.339c8.883-0.969,17.575,2.071,23.859,8.354&#10;&#9;&#9;l32.694,32.694c5.857,5.857,15.356,5.857,21.213,0l34.467-34.467L130.56,145.622z M70.05,404.825c-8.28,8.28-21.704,8.28-29.983,0&#10;&#9;&#9;c-8.28-8.28-8.28-21.704,0-29.983c8.28-8.28,21.704-8.28,29.983,0C78.33,383.121,78.33,396.545,70.05,404.825z"/>
  </g>
</svg>