<?xml version="1.0" encoding="utf-8"?>
<svg viewBox="0 0 500 500" xmlns="http://www.w3.org/2000/svg">
  <defs/>
  <g transform="matrix(1, 0, 0, 1, -1.794006, -40.434181)">
    <path d="M 64.449 385.576 L 435.552 385.576 C 442.737 385.576 449.665 382.931 455.069 378.156 C 474.946 360.595 487.5 334.805 487.5 306.057 C 487.5 253.138 444.967 210.24 392.5 210.24 C 391.228 210.24 389.96 210.267 388.699 210.318 C 388.699 210.293 388.701 210.266 388.701 210.24 C 388.701 157.322 346.167 114.424 293.702 114.424 C 276.395 114.424 260.175 119.09 246.201 127.245 C 232.227 119.09 216.004 114.424 198.702 114.424 C 146.234 114.424 103.7 157.322 103.7 210.24 C 103.7 210.267 103.701 210.295 103.701 210.321 C 52.996 212.334 12.5 254.422 12.5 306.057 C 12.5 334.805 25.055 360.595 44.932 378.156 C 50.335 382.931 57.266 385.576 64.449 385.576 Z" style="fill: rgb(255, 255, 255); stroke-width: 17px; stroke: rgb(255, 255, 255);"/>
    <path d="M 485.235 303.356 C 484.262 298.481 479.385 295.555 474.51 295.555 C 462.806 297.506 451.106 291.655 445.253 280.927 C 439.405 271.175 440.378 257.523 447.204 248.75 C 450.13 244.847 450.13 238.997 446.231 236.071 C 430.628 221.443 412.099 210.718 391.622 204.868 C 386.744 203.893 381.867 205.841 379.918 210.718 C 375.044 221.443 364.313 228.272 352.612 228.272 C 340.912 228.272 330.184 221.443 325.309 210.718 C 323.358 205.841 318.483 202.917 313.606 204.868 C 293.128 210.718 274.599 221.443 258.997 237.046 C 255.097 239.973 255.097 245.823 258.021 249.725 C 264.847 259.475 265.822 272.151 259.972 281.903 C 254.122 291.655 242.419 297.506 230.715 296.527 C 225.84 295.555 220.963 299.457 219.99 304.331 C 217.064 314.081 216.088 324.809 216.088 335.537 C 216.088 346.262 217.064 356.987 219.99 367.714 C 220.963 372.589 225.84 375.513 230.715 374.54 C 242.419 372.589 254.122 378.439 259.972 389.167 C 265.822 398.92 264.847 412.568 258.021 421.345 C 255.097 425.247 255.097 431.098 258.997 434.021 C 274.599 448.648 294.101 460.352 314.581 466.199 C 319.456 467.178 324.334 465.227 326.282 460.352 C 331.16 449.624 341.887 442.798 353.588 442.798 C 365.291 442.798 376.016 449.624 380.894 460.352 C 382.842 464.251 385.769 466.199 389.671 466.199 C 390.643 466.199 391.622 466.199 392.595 466.199 C 413.075 460.352 432.577 448.648 448.179 434.021 C 452.081 430.122 452.081 425.247 449.155 421.345 C 442.329 411.593 441.353 398.92 447.204 389.167 C 453.054 379.415 464.757 373.565 476.461 374.54 C 481.336 375.513 486.213 371.617 487.186 366.739 C 490.112 356.011 491.088 345.286 491.088 334.558 C 491.088 323.833 488.161 314.081 485.235 303.356 Z M 310.679 357.962 C 314.581 361.864 314.581 367.714 310.679 371.617 C 308.731 373.565 306.78 374.54 303.853 374.54 C 300.927 374.54 298.979 373.565 297.028 371.617 L 267.773 342.36 C 263.868 338.46 263.868 332.607 267.773 328.708 L 297.028 299.457 C 300.927 295.555 306.78 295.555 310.679 299.457 C 314.581 303.356 314.581 309.206 310.679 313.108 L 288.251 335.537 L 310.679 357.962 Z M 380.894 300.429 L 341.887 378.439 C 339.936 382.339 337.01 384.293 333.111 384.293 C 331.16 384.293 330.184 384.293 329.208 383.314 C 324.334 381.366 322.383 375.513 325.309 370.638 L 364.313 292.631 C 366.267 287.753 372.117 285.802 376.992 288.729 C 380.894 290.68 382.842 296.527 380.894 300.429 Z M 437.454 342.36 L 408.197 371.617 C 406.249 373.565 404.298 374.54 401.371 374.54 C 398.445 374.54 396.497 373.565 394.546 371.617 C 390.643 367.714 390.643 361.864 394.546 357.962 L 416.974 335.537 L 394.546 313.108 C 390.643 309.206 390.643 303.356 394.546 299.457 C 398.445 295.555 404.298 295.555 408.197 299.457 L 437.454 328.708 C 441.353 332.607 441.353 338.46 437.454 342.36 Z" style="fill: rgb(255, 255, 255); stroke-width: 17px; stroke: rgb(255, 255, 255);"/>
  </g>
  <g transform="matrix(1, 0, 0, 1, -1.794006, -40.434181)">
    <path d="M 64.449 385.576 L 435.552 385.576 C 442.737 385.576 449.665 382.931 455.069 378.156 C 474.946 360.595 487.5 334.805 487.5 306.057 C 487.5 253.138 444.967 210.24 392.5 210.24 C 391.228 210.24 389.96 210.267 388.699 210.318 C 388.699 210.293 388.701 210.266 388.701 210.24 C 388.701 157.322 346.167 114.424 293.702 114.424 C 276.395 114.424 260.175 119.09 246.201 127.245 C 232.227 119.09 216.004 114.424 198.702 114.424 C 146.234 114.424 103.7 157.322 103.7 210.24 C 103.7 210.267 103.701 210.295 103.701 210.321 C 52.996 212.334 12.5 254.422 12.5 306.057 C 12.5 334.805 25.055 360.595 44.932 378.156 C 50.335 382.931 57.266 385.576 64.449 385.576 Z" style="fill: rgb(71, 141, 255);"/>
    <path d="M 485.235 303.356 C 484.262 298.481 479.385 295.555 474.51 295.555 C 462.806 297.506 451.106 291.655 445.253 280.927 C 439.405 271.175 440.378 257.523 447.204 248.75 C 450.13 244.847 450.13 238.997 446.231 236.071 C 430.628 221.443 412.099 210.718 391.622 204.868 C 386.744 203.893 381.867 205.841 379.918 210.718 C 375.044 221.443 364.313 228.272 352.612 228.272 C 340.912 228.272 330.184 221.443 325.309 210.718 C 323.358 205.841 318.483 202.917 313.606 204.868 C 293.128 210.718 274.599 221.443 258.997 237.046 C 255.097 239.973 255.097 245.823 258.021 249.725 C 264.847 259.475 265.822 272.151 259.972 281.903 C 254.122 291.655 242.419 297.506 230.715 296.527 C 225.84 295.555 220.963 299.457 219.99 304.331 C 217.064 314.081 216.088 324.809 216.088 335.537 C 216.088 346.262 217.064 356.987 219.99 367.714 C 220.963 372.589 225.84 375.513 230.715 374.54 C 242.419 372.589 254.122 378.439 259.972 389.167 C 265.822 398.92 264.847 412.568 258.021 421.345 C 255.097 425.247 255.097 431.098 258.997 434.021 C 274.599 448.648 294.101 460.352 314.581 466.199 C 319.456 467.178 324.334 465.227 326.282 460.352 C 331.16 449.624 341.887 442.798 353.588 442.798 C 365.291 442.798 376.016 449.624 380.894 460.352 C 382.842 464.251 385.769 466.199 389.671 466.199 C 390.643 466.199 391.622 466.199 392.595 466.199 C 413.075 460.352 432.577 448.648 448.179 434.021 C 452.081 430.122 452.081 425.247 449.155 421.345 C 442.329 411.593 441.353 398.92 447.204 389.167 C 453.054 379.415 464.757 373.565 476.461 374.54 C 481.336 375.513 486.213 371.617 487.186 366.739 C 490.112 356.011 491.088 345.286 491.088 334.558 C 491.088 323.833 488.161 314.081 485.235 303.356 Z M 310.679 357.962 C 314.581 361.864 314.581 367.714 310.679 371.617 C 308.731 373.565 306.78 374.54 303.853 374.54 C 300.927 374.54 298.979 373.565 297.028 371.617 L 267.773 342.36 C 263.868 338.46 263.868 332.607 267.773 328.708 L 297.028 299.457 C 300.927 295.555 306.78 295.555 310.679 299.457 C 314.581 303.356 314.581 309.206 310.679 313.108 L 288.251 335.537 L 310.679 357.962 Z M 380.894 300.429 L 341.887 378.439 C 339.936 382.339 337.01 384.293 333.111 384.293 C 331.16 384.293 330.184 384.293 329.208 383.314 C 324.334 381.366 322.383 375.513 325.309 370.638 L 364.313 292.631 C 366.267 287.753 372.117 285.802 376.992 288.729 C 380.894 290.68 382.842 296.527 380.894 300.429 Z M 437.454 342.36 L 408.197 371.617 C 406.249 373.565 404.298 374.54 401.371 374.54 C 398.445 374.54 396.497 373.565 394.546 371.617 C 390.643 367.714 390.643 361.864 394.546 357.962 L 416.974 335.537 L 394.546 313.108 C 390.643 309.206 390.643 303.356 394.546 299.457 C 398.445 295.555 404.298 295.555 408.197 299.457 L 437.454 328.708 C 441.353 332.607 441.353 338.46 437.454 342.36 Z" style=""/>
  </g>
</svg>