<?xml version="1.0" encoding="utf-8"?>
<svg viewBox="0 0 500 500" xmlns="http://www.w3.org/2000/svg">
  <rect width="500" height="500" style="fill: rgb(168, 168, 168);"/>
  <path d="M 64.449 385.576 L 435.552 385.576 C 442.737 385.576 449.665 382.931 455.069 378.156 C 474.946 360.595 487.5 334.805 487.5 306.057 C 487.5 253.138 444.967 210.24 392.5 210.24 C 391.228 210.24 389.96 210.267 388.699 210.318 C 388.699 210.293 388.701 210.266 388.701 210.24 C 388.701 157.322 346.167 114.424 293.702 114.424 C 276.395 114.424 260.175 119.09 246.201 127.245 C 232.227 119.09 216.004 114.424 198.702 114.424 C 146.234 114.424 103.7 157.322 103.7 210.24 C 103.7 210.267 103.701 210.295 103.701 210.321 C 52.996 212.334 12.5 254.422 12.5 306.057 C 12.5 334.805 25.055 360.595 44.932 378.156 C 50.335 382.931 57.266 385.576 64.449 385.576 Z" style="fill: rgb(71, 141, 255);"/>
  <path d="M 485.235 305.356 C 484.262 300.481 479.385 297.555 474.51 297.555 C 462.806 299.506 451.106 293.655 445.253 282.927 C 439.405 273.175 440.378 259.523 447.204 250.75 C 450.13 246.847 450.13 240.997 446.231 238.071 C 430.628 223.443 412.099 212.718 391.622 206.868 C 386.744 205.893 381.867 207.841 379.918 212.718 C 375.044 223.443 364.313 230.272 352.612 230.272 C 340.912 230.272 330.184 223.443 325.309 212.718 C 323.358 207.841 318.483 204.917 313.606 206.868 C 293.128 212.718 274.599 223.443 258.997 239.046 C 255.097 241.973 255.097 247.823 258.021 251.725 C 264.847 261.475 265.822 274.151 259.972 283.903 C 254.122 293.655 242.419 299.506 230.715 298.527 C 225.84 297.555 220.963 301.457 219.99 306.331 C 217.064 316.081 216.088 326.809 216.088 337.537 C 216.088 348.262 217.064 358.987 219.99 369.714 C 220.963 374.589 225.84 377.513 230.715 376.54 C 242.419 374.589 254.122 380.439 259.972 391.167 C 265.822 400.92 264.847 414.568 258.021 423.345 C 255.097 427.247 255.097 433.098 258.997 436.021 C 274.599 450.648 294.101 462.352 314.581 468.199 C 319.456 469.178 324.334 467.227 326.282 462.352 C 331.16 451.624 341.887 444.798 353.588 444.798 C 365.291 444.798 376.016 451.624 380.894 462.352 C 382.842 466.251 385.769 468.199 389.671 468.199 C 390.643 468.199 391.622 468.199 392.595 468.199 C 413.075 462.352 432.577 450.648 448.179 436.021 C 452.081 432.122 452.081 427.247 449.155 423.345 C 442.329 413.593 441.353 400.92 447.204 391.167 C 453.054 381.415 464.757 375.565 476.461 376.54 C 481.336 377.513 486.213 373.617 487.186 368.739 C 490.112 358.011 491.088 347.286 491.088 336.558 C 491.088 325.833 488.161 316.081 485.235 305.356 Z M 310.679 359.962 C 314.581 363.864 314.581 369.714 310.679 373.617 C 308.731 375.565 306.78 376.54 303.853 376.54 C 300.927 376.54 298.979 375.565 297.028 373.617 L 267.773 344.36 C 263.868 340.46 263.868 334.607 267.773 330.708 L 297.028 301.457 C 300.927 297.555 306.78 297.555 310.679 301.457 C 314.581 305.356 314.581 311.206 310.679 315.108 L 288.251 337.537 L 310.679 359.962 Z M 380.894 302.429 L 341.887 380.439 C 339.936 384.339 337.01 386.293 333.111 386.293 C 331.16 386.293 330.184 386.293 329.208 385.314 C 324.334 383.366 322.383 377.513 325.309 372.638 L 364.313 294.631 C 366.267 289.753 372.117 287.802 376.992 290.729 C 380.894 292.68 382.842 298.527 380.894 302.429 Z M 437.454 344.36 L 408.197 373.617 C 406.249 375.565 404.298 376.54 401.371 376.54 C 398.445 376.54 396.497 375.565 394.546 373.617 C 390.643 369.714 390.643 363.864 394.546 359.962 L 416.974 337.537 L 394.546 315.108 C 390.643 311.206 390.643 305.356 394.546 301.457 C 398.445 297.555 404.298 297.555 408.197 301.457 L 437.454 330.708 C 441.353 334.607 441.353 340.46 437.454 344.36 Z" style=""/>
</svg>